<?xml version="1.0" encoding="utf-8"?>
<!-- Generator: Adobe Illustrator 16.0.0, SVG Export Plug-In . SVG Version: 6.00 Build 0)  -->
<!DOCTYPE svg PUBLIC "-//W3C//DTD SVG 1.1//EN" "http://www.w3.org/Graphics/SVG/1.1/DTD/svg11.dtd">
<svg version="1.1" id="Calque_1" xmlns="http://www.w3.org/2000/svg" xmlns:xlink="http://www.w3.org/1999/xlink" x="0px" y="0px"
	 width="1250px" height="344px" viewBox="0 0 1250 344" enable-background="new 0 0 1250 344" xml:space="preserve">
<path fill-rule="evenodd" clip-rule="evenodd" fill="#FFFFFF" d="M0,306.097c0,0,18.107-1.766,38.656-10.245
	c11.723-4.837,24.241-12.209,34.646-20.29c5.358-4.228,19.025,5.105,44.692-14.75c1.958-2.344,8.442-10.105,8.442-10.105
	l8.265-2.328l14.626,1.29l19.333-10l69.667,31l8.584-5.451l22.749,8.118l26,15l11.627-7.082l12.075-15.527l21.944-19.668
	l17.373-9.683l16.636-17.103l18.496-21.319l0.549-7.412l30.978-35.923l21.402-14.868l16.404-19.949l10.207-8.122l7.93-12.036
	l21.169-24.055l4.865-10.093l10.671-17.278l10.43-18.821l7.56-14.714l6.974-0.158l23.484,3.376l15.562,10.072l19.774,17.873
	l23.032,15.721l8.788,8.288l10.383,13.822l17.887,16.112l10.288,12.438l15.169,8.123l11.998,3.983l8.338,5.732l4.583,11.243
	l6.293,11.041l3.927,7.43l13.865,24.149l10.603,8.073l6.917,10.027l12.262,22.471l19.865,32.554l12.189,14.539l17.473,11.413
	l26.267-4.521l12.026-13.584l13.027-5.926l9.456-15.487l29.924-15.065l11.617-1.94l13.674-7.287l14.796-4.737l15.441-7.837
	l23.453,3.16l25.654-4.417l9.074,3.824l8.272,3.486l12.019-0.642l31.707-9.692l66.369,42.558l6.258,2.776l12.771-0.462
	l28.281,19.712l2.62,9.082c5.237,2.109,13.201,9.017,19.268,10.175S1250,298.966,1250,298.966V344H0V306.097z"/>
<g>
	<path fill-rule="evenodd" clip-rule="evenodd" fill="#3C3C3B" d="M726.851,246.783c0.181,0.806,0.748,2.146,0.483,2.338
		c-3.632,2.628-7.379,5.098-11.757,6.755c1.146-1.274,2.291-2.548,3.697-4.113c-1.049-0.363-1.853-0.641-3.321-1.149
		c2.745-2.584,5.217-4.91,7.972-7.504c-1.294,0-2.359,0-4.209,0c1.497-1.769,2.597-3.067,3.321-3.924
		c-1.938-0.778-4.059-1.629-6.583-2.642c1.104-1.933,1.827-3.198,2.551-4.463c-0.229-0.196-0.457-0.393-0.685-0.589
		c-1.61,1.504-3.22,3.008-4.83,4.512c5.111-15.635,16.87-26.519,26.738-38.717c-0.361-0.354-0.722-0.707-1.083-1.06
		c-1.127,2.127-2.254,4.254-3.381,6.381c-0.757-0.72-1.514-1.439-2.271-2.159c-0.607-6.498,6.757-6.269,9.707-9.798
		c-10.274-7.13-15.095-18.057-21.08-28.807c-0.832,0.136-2.141,0.35-4.105,0.67c4.396-5.37,2.327-8.358-2.751-10.605
		c-0.829-0.367-1.1-2.185-1.456-3.383c-0.5-1.687-0.84-3.421-2.235-5.123c-0.551,2.623-1.103,5.246-1.653,7.868
		c-0.112-0.006-0.224-0.012-0.335-0.019c0-4.156,0.008-8.312-0.007-12.468c-0.003-0.829,0.154-1.778-0.183-2.466
		c-1.075-2.2-2.348-4.303-3.544-6.443c-0.45,2.023-1.138,4.027-1.307,6.074c-0.479,5.786-0.914,11.588-0.974,17.388
		c-0.015,1.42,1.51,4.101,2.262,4.078c4.229-0.127,5.126,2.18,4.882,4.236c2.135,2.101,3.273,3.648,4.78,4.628
		c5.117,3.325,3.794,8.593,4.532,13.337c0.19,1.22,2.188,2.158,3.36,3.23c-0.881,2.658-1.932,5.825-2.981,8.991l0.154,0.142
		c-0.507-1.16-1.014-2.32-2.012-4.606c-2.425,3.009-4.513,5.599-6.601,8.189c0.279,0.319,0.558,0.638,0.836,0.957
		c0.774-0.428,1.548-0.856,3.187-1.762c-1.406,3.572-2.495,6.338-3.583,9.104c-0.577,0.114-1.154,0.227-1.732,0.34
		c-0.745-2.212-1.491-4.425-2.544-7.55c-6.344-2.569-8.95-12.533-18.221-14.359c1.798-4.05,3.701-8.338,5.605-12.626
		c-10.223,7.146-22.591,10.101-32.707,17.264c-5.874-3.813-8.637,2.844-13.478,4.847c0.702-1.638,1.216-2.835,2.076-4.843
		c-2.104,0.524-3.391,0.844-5.345,1.33c0.547-1.653,0.979-2.96,1.864-5.635c-2.308,1.79-3.656,2.79-4.954,3.853
		c-2.323,1.905-4.157,1.9-5.374-1.198c-0.423-1.077-1.023-2.083-1.512-3.135c-1.676-3.61-0.618-4.915,3.447-5.112
		c1.95-0.094,3.853-1.169,5.777-1.799c-0.077-0.5-0.155-1-0.232-1.5c-1.112-0.417-2.225-0.834-2.792-1.046
		c-0.365-6.407,2.752-10.995,7.603-14.459c0.865-0.618,2.438-0.247,3.684-0.333c-2.158,1.711-4.317,3.423-6.476,5.135
		c0.284,0.417,0.568,0.834,0.853,1.251c1.671-0.565,3.342-1.13,6.385-2.159c-2.96,3.658-4.96,6.128-7.049,8.71
		c1.451,1.558,2.588,2.778,3.726,3.999c0.396-0.286,0.794-0.572,1.19-0.858c-0.713-1.163-1.426-2.325-2.6-4.241
		c3.958-3.014,8.199-6.085,12.228-9.414c1.111-0.918,1.588-2.605,2.356-3.939c-0.389-0.202-0.777-0.404-1.166-0.605
		c-2.458,1.729-4.917,3.458-8.581,6.035c0.922-2.792,1.324-4.01,1.806-5.467c-0.873,0.283-1.342,0.436-1.811,0.588
		c0.92-2.268,1.84-4.536,2.761-6.803c-0.229-0.226-0.457-0.452-0.686-0.677c-4.307,3.763-8.614,7.527-12.921,11.291
		c-0.364-0.316-0.728-0.632-1.091-0.948c0.739-1.421,1.479-2.842,2.332-4.48c-1.174-0.295-2.101-0.528-4.257-1.07
		c4.246-3.857,7.986-7.254,11.726-10.652c-0.198-0.268-0.396-0.535-0.595-0.802c-3.142,1.837-6.283,3.674-9.425,5.511
		c-0.347-0.546-0.692-1.091-1.038-1.637c1.174-0.6,2.581-0.968,3.467-1.856c1.299-1.302,2.078-3.117,3.352-4.452
		c1.35-1.416,3.019-2.526,4.776-3.956c-5.679-3.643-7.356,3.996-12.549,3.525c-0.427-2.417-0.937-5.302-1.57-8.888
		c-2.132-1.035-5.01-2.431-7.887-3.827c0.099-0.382,0.196-0.764,0.294-1.145c2.585,0.411,5.169,0.822,7.773,1.237
		c0.181-0.27,0.449-0.508,0.514-0.793c0.454-1.989,0.866-3.987,1.292-5.981c2.021,1.154,4.196,2.11,6.01,3.528
		c1.387,1.086,2.315,2.757,3.449,4.168c0.341-0.262,0.683-0.524,1.023-0.787c-1.217-1.823-2.433-3.646-4.176-6.257
		c1.65-1.168,3.398-2.406,4.297-3.042c-1.429-3.215-2.527-5.685-3.578-8.047c-4.619,0.245-7.804,6.89-13.997,3.264
		c1.463-1.604,2.767-3.034,4.479-4.912c-1.579,0.223-2.659,0.375-4.456,0.628c0.79-1.643,1.301-2.706,2.054-4.271
		c-1.535,0.388-2.761,0.697-3.985,1.006c-0.229-0.284-0.459-0.567-0.688-0.851c2.468-2.326,4.936-4.651,7.403-6.977l-0.164,0.171
		c3.351-2.063,6.7-4.126,10.088-6.212c2.319,6.261,6.061,9.095,14.547,10.473c-6.022-5.564-11.249-10.557-16.718-15.269
		c-0.82-0.707-2.773-0.098-3.38-0.098c-0.748-1.837-1.289-3.781-2.279-5.46c-1.756-2.979-3.542-6.003-5.767-8.626
		c-2.316-2.732-5.049-5.151-7.807-7.46c-5.138-4.3-10.403-8.45-15.661-12.603c-2.158-1.705-4.399-1.245-5.195,1.212
		c-1.001,3.085-5.502,4.198-4.305,8.727c0.297,1.121-3.13,3.228-5.015,5.044c0.205-1.017,0.375-1.854,0.544-2.693
		c-0.507-0.454-1.015-0.908-1.522-1.361c-2.684,3.525-5.368,7.049-8.053,10.574c-0.333-0.344-0.665-0.688-0.998-1.033
		c0.738-0.791,1.413-1.654,2.226-2.359c2.663-2.311,1.731-4.332-0.505-6.151c-6.302-5.126-12.646-10.197-19.759-15.921
		c2.528,3.128,4.558,5.64,6.587,8.152c-8.158-4.68-10.775-12.781-13.947-20.541c0.398-0.216,0.796-0.433,1.194-0.649
		c1.006,2.455,2.012,4.91,3.018,7.365c0.354-0.114,0.709-0.228,1.063-0.341c-0.213-1.505-0.426-3.011-0.58-4.101
		c2.039,0,3.819-0.311,5.415,0.098c1.286,0.33,2.755,1.279,3.438,2.388c2.647,4.305,4.759,8.966,7.683,13.057
		c0.654,0.916,3.946,0.501,5.733-0.126c1.398-0.491,2.348-2.259,3.992-3.978c-1.669,0.507-2.801,0.851-5.028,1.527
		c1.513-3.733,2.876-6.475,3.695-9.372c0.43-1.523,0.59-4.073-0.291-4.864c-6.287-5.643-12.225-12.208-19.557-15.998
		c-6.661-3.443-14.932-3.803-22.517-5.41c-2.075-0.439-4.235-0.473-6.699-0.728c0.666,10.18,2.879,19.891,6.488,29.367
		c1.236,3.247,1.465,6.866,2.3,10.28c2.513,10.273,5.935,20.277,8.963,30.397c0.786,2.628-1.103,6.204,4.38,7.105
		c-2.286,1.722-4.233,2.907-5.829,4.456c-2.43,2.357-5.397,4.632-6.646,7.575c-0.939,2.21,0.463,5.415,0.927,8.979
		c1.425-1.247,2.429-2.125,3.433-3.003c0.242,0.253,0.484,0.507,0.727,0.76c-1.53,1.405-3.061,2.81-4.786,4.394
		c0.063,0.046,0.791,0.579,1.9,1.391c-5.973,6.805-7.364,14.731-4.903,23.612c1.219-1.106,2.538-2.302,4.479-4.063
		c-2.079,4.064-3.747,7.324-5.415,10.584c0.312,0.215,0.622,0.43,0.934,0.646c1.107-0.744,2.215-1.489,4.422-2.972
		c-1.684,2.959-2.771,4.873-3.971,6.98c1.544,0.828,2.887,1.548,4.436,2.378c1.171-1.108,2.302-2.178,4.365-4.128
		c-1.082,2.234-1.608,3.322-2.014,4.158c11.438,4.221,22.705,8.378,33.972,12.536c-0.134,0.41-0.268,0.819-0.401,1.229
		c-15.73-4.903-31.461-9.806-47.282-14.737c-1.45,7.219,2.009,13.684,6.743,13.546c-0.174,0.932-0.34,1.826-0.493,2.646
		c2.051,0.921,3.981,1.883,5.98,2.667c6.117,2.4,7.747,6.926,7.091,13.17c-0.586,5.568-0.482,11.227-0.366,16.839
		c0.031,1.484,1.146,2.99,1.927,4.395c0.389,0.697,1.105,1.242,1.749,1.762c6.956,5.614,10.169,13.124,12.776,21.572
		c2.342,7.587,7.133,14.408,10.748,21.615c2.008,4.002,3.771,8.126,5.746,12.145c0.708,1.439,1.714,2.732,1.961,4.912
		c-1.768-1.779-3.535-3.557-5.621-5.657c0.833-2.493-2.052-9.125-8.687-18.484c-0.758,0.582-1.512,1.16-2.488,1.909
		c0.333-1.639,0.617-3.036,0.901-4.432c-5.104,4.547-7.359,12.228-16.414,12.158c1.808-3.494,3.655-7.065,5.504-10.637
		c-0.322-0.262-0.645-0.524-0.967-0.787c-1.77,2.434-3.538,4.868-6.075,8.358c0.143-2.116,0.2-2.962,0.256-3.793
		c-4.222,1.342-7.871-1.363-7.776-6.431c-1.407,1.791-2.52,3.206-3.632,4.621c-0.447-0.299-0.896-0.597-1.343-0.896
		c5.483-8.44,10.967-16.88,16.838-25.917c-1.213,0.451-2.935,0.548-3.642,1.446c-3.367,4.273-6.448,8.771-9.652,13.174
		c-1.125,1.545-2.313,3.045-3.474,4.565c-0.373-0.267-0.747-0.534-1.121-0.801c4.813-7.021,9.626-14.042,14.438-21.063
		c-0.179-0.144-0.358-0.289-0.537-0.433c-5.889,6.628-11.776,13.257-17.665,19.886c-0.576-0.415-1.152-0.831-1.729-1.246
		c3.033-4.854,6.066-9.708,9.1-14.562c-0.311-0.226-0.621-0.452-0.932-0.677c-2.846,3.737-5.692,7.475-8.538,11.212
		c2.79-9.865,11.999-15.823,15.092-25.381c-0.462-0.323-0.924-0.646-1.386-0.969c-5.38,7.146-10.76,14.292-16.408,21.794
		c-0.814-4.93-5.052-9.333,0.073-13.376c-1.55-0.542-4.096-0.821-4.267-1.613c-0.451-2.089-0.619-4.868,0.429-6.541
		c4.399-7.025,9.296-13.739,13.981-20.587c0.803-1.173,1.464-2.443,2.191-3.668c-0.376-0.264-0.751-0.528-1.127-0.792
		c-6.835,8.984-13.671,17.969-20.506,26.953c-0.393-0.291-0.784-0.582-1.177-0.872c3.396-4.825,6.793-9.65,10.189-14.476
		c-0.213-0.168-0.426-0.337-0.639-0.505c-2.415,2.759-4.83,5.518-7.703,8.8c-1.925-2.899-3.654-5.503-5.423-8.166
		c-0.588,0.728-1.519,1.879-2.448,3.029c-0.381-0.281-0.762-0.563-1.142-0.844c4.514-5.818,9.028-11.637,13.543-17.456
		c-0.271-0.215-0.542-0.431-0.813-0.646c-4.126,4.758-8.252,9.517-12.377,14.275c-0.445-0.388-0.89-0.775-1.334-1.163
		c6.785-7.561,13.571-15.121,20.356-22.682c-0.218-0.291-0.436-0.583-0.653-0.874c-2.277,1.834-4.717,3.504-6.793,5.543
		c-2.891,2.839-5.51,5.956-8.249,8.958c3.479-7.01,8.522-12.766,14.177-18.082c-9.47,4.978-14.341,14.269-21.191,21.694
		c0.34,0.372,0.68,0.744,1.02,1.115c2.058-1.633,4.115-3.265,6.173-4.898c-2.681,4.232-4.661,9.243-10.928,9.375
		c-0.657,0.014-1.407,0.861-1.925,1.48c-4.008,4.798-8.234,9.451-11.787,14.569c-1.096,1.58-1.095,4.841-0.21,6.658
		c1.279,2.627,3.82,4.641,5.892,6.994c-1.221,1.489-2.092,2.552-3.036,3.704c0.585,0.188,1.111,0.417,1.145,0.359
		c0.979-1.682,2.837-3.515,2.632-5.069c-0.332-2.505-2.202-4.768-3.088-7.252c-0.543-1.523-0.462-3.269,0.087-4.745
		c2.585,5.818,5.046,11.697,7.786,17.441c3.769,7.897,7.029,16.178,11.884,23.366c3.426,5.072,6.33,10.79,11.769,14.609
		c5.539,3.889,10.374,8.783,15.51,13.245c0.112,0.098,0.139,0.294,0.548,1.215c-10.675-3.621-14.908-16.555-26.438-17.563
		c0.244-0.176,1.153-0.828,2.316-1.664c-2.369-3.037-4.546-5.828-6.954-8.915c-0.354,0.11-1.282,0.398-2.298,0.714
		c0-2.482,0-4.569,0-7.295c-4.837,2.466-8.866,4.52-12.896,6.574c-0.201-0.178-0.401-0.356-0.603-0.535
		c3.834-2.843,7.669-5.687,12.458-9.238c-2.506,0-3.802,0-4.775,0c0.337-2.733,0.653-5.301,0.996-8.079
		c-6.777,3.724-12.688,6.698-18.313,10.142c-5.508,3.373-10.723,7.223-16.066,10.864c-0.44-0.616-0.881-1.231-1.321-1.846
		c3.477-3,6.953-6.001,11.13-9.605c-6.439,0.07-8.255,8.904-14.302,7.311c-0.288-0.558-0.576-1.116-0.864-1.674
		c7.54-5.87,15.079-11.739,22.619-17.609c-0.475-0.576-0.949-1.152-1.424-1.728c-9.179,7.645-19.646,13.778-27.729,24.103
		c0.22,0.058-0.716-0.11-1.589-0.442c-0.72-0.273-1.364-0.742-2.848-1.578c-1.633,8.431-3.133,16.345-4.712,24.243
		c-0.712,3.561-1.265,7.201-2.457,10.607c-1.898,5.422-4.607,0.672-7.069,0.136c-2.168,1.704-1.588,7.474-6.583,4.524
		c-0.438,1.725-0.808,3.178-1.177,4.629c-0.5-0.016-0.999-0.03-1.498-0.046c0-2.634-0.754-5.579,0.178-7.826
		c1.382-3.337,1.89-3.126-2.805-4.506c6.915-6.51,13.866-12.564,19.969-19.369c-0.406-0.411-0.813-0.823-1.219-1.234
		c-0.83,0.368-1.66,0.735-3.97,1.758c2.246-3.864,3.831-6.592,6.118-10.526c-4.393,2.771-7.598,5.106-11.095,6.855
		c-1.586,0.792-3.753,0.421-5.656,0.579l0.042,0.098c-1.481-0.102-2.964-0.205-4.546-0.314c-2.13-1.402-4.566-3.005-7.004-4.609
		c0.146-0.412,0.293-0.823,0.439-1.235c5.318,3.581,9.946,1.735,14.767-0.881c2.401-1.303,5.429-1.453,8.172-2.124
		c-0.742-0.442-1.484-0.884-2.227-1.326c2.271-0.482,4.542-0.964,6.813-1.446c-0.245-0.384-0.49-0.769-0.734-1.153
		c-1.181,0.235-2.36,0.47-3.541,0.704c-0.169-0.279-0.339-0.559-0.508-0.838c1.329-0.944,2.659-1.889,4.985-3.541
		c-8.305,0.083-10.578,10.876-19.37,6.965c-0.865-6.201,3.567-11.182,7.88-16.484c-3.296,2.169-6.54,4.423-9.928,6.438
		c-0.723,0.43-1.966-0.016-2.969-0.058c0.412-0.892,0.6-2.035,1.272-2.636c5.654-5.054,11.397-10.009,16.857-15.825
		c-1.888,0.374-3.774,0.747-5.661,1.121c-0.178-0.374-0.355-0.748-0.533-1.122c9.285-6.083,18.57-12.165,27.856-18.248
		c0.328,0.347,0.657,0.694,0.986,1.041c-0.467,0.844-0.933,1.687-1.528,2.765c4.182,0.826,7.473-8.754,12.19-0.383
		c3.315-2.335,6.469-4.556,9.391-6.613c-0.443,7.679-10.011,5.911-13.202,11.72c0.817,0.61,1.896,1.414,3.021,2.253
		c-1.549,3.739-10.588,2.843-6.317,10.422c3.545-2.856,7.457-5.21,10.292-8.494c3.654-4.232,7.138-8.898,9.421-13.953
		c2.391-5.292,5.198-8.896,11.306-9.032c0.409-0.009,0.946-0.401,1.189-0.77c2.579-3.916,5.111-7.862,7.227-12.296
		c-7.206,8.818-16.578,13.514-27.568,16.703c0.059,0.3,0.317,1.638,0.597,3.077c-3.854-2.104-3.854-2.104,2.372-10.984
		c-2.96,1.403-5.43,2.574-9.076,4.303c1.601-3.854,2.52-6.067,3.965-9.548c-4.099,2.378-7.099,4.117-10.098,5.857
		c-0.276-0.405-0.553-0.81-0.829-1.214c10.688-9.175,22.998-16.177,34.079-25.075c-2.249,1.183-4.617,2.186-6.727,3.579
		c-9.266,6.118-18.316,12.58-27.786,18.356c-2.051,1.25-5.515,0.183-8.328,0.183c-0.259-0.683-0.518-1.365-0.776-2.048
		c14.021-9.135,28.043-18.271,42.064-27.406c-0.382-0.601-0.764-1.203-1.146-1.804c-13.415,8.199-26.831,16.397-40.246,24.596
		c-0.359-0.621-0.719-1.241-1.078-1.862c14.752-9.012,29.505-18.024,44.258-27.037c-0.393-0.639-0.784-1.277-1.177-1.916
		c-3.914,2.283-7.864,4.505-11.734,6.859c-11.586,7.05-23.034,14.335-34.749,21.164c-6.672,3.888-13.533,7.683-20.747,10.32
		c-4.139,1.513-8.6,2.094-12.241,4.885c-1.176,0.9-2.667,1.576-3.478,2.73c-2.213,3.149-4.696,2.763-7.743,1.236
		c7.77-5.192,15.278-10.21,22.788-15.229c-0.278-0.421-0.557-0.843-0.835-1.264c-11.333,4.148-20.22,13.276-31.678,17.169
		c-0.268-0.456-0.534-0.912-0.802-1.369c1.693-1.251,3.387-2.502,5.715-4.223c-2.349-0.459-3.862-0.756-6.763-1.323
		c8.959-5.253,16.918-9.92,24.878-14.587c-0.242-0.433-0.484-0.865-0.726-1.298c-4.311,2.497-8.729,4.827-12.894,7.546
		c-2.888,1.885-5.341,2.685-7.539-0.58c-4.795,3.93-9.475,7.619-13.952,11.539c-1.119,0.979-2.312,2.74-2.238,4.075
		c0.454,8.322-4.181,14.137-9.336,19.649c-5.911,6.321-12.769,11.892-17.915,18.762c-7.037,9.394-17.059,13.604-26.965,18.347
		c-0.297,0.142-0.777,0.105-0.927,0.321c-4.409,6.357-11.9,10.482-13.609,18.778c-0.051,0.245,0.276,0.568,0.597,1.177
		c1.084-0.576,2.165-1.149,3.247-1.724c0.271,0.33,0.544,0.662,0.816,0.992c-2.509,2.006-5.019,4.011-8.585,6.861
		c0.628-3.372,1.019-5.468,1.392-7.464c-8.645,3.399-11.343,6.323-13.909,15.175c0.377,0.387,0.754,0.775,1.131,1.162
		c0.975-1.746,1.949-3.493,2.924-5.24c0.601,0.252,1.201,0.504,1.802,0.756c-0.231,1.246-0.042,2.867-0.764,3.678
		c-5.563,6.253-6.881,6.574-11.509,3.081c-0.816,1.405-1.607,2.767-2.43,4.183c5.323,5.463,9.465,0.989,15.138-2.07
		c-0.873,2.424-1.209,3.713-1.794,4.878c-0.61,1.216-1.462,2.31-1.535,4.218c1.376-0.53,2.753-1.062,4.626-1.783
		c-0.846,1.455-1.496,2.572-2.146,3.689c0.27,0.27,0.539,0.538,0.809,0.807c1.693-1.152,3.388-2.304,5.261-3.578
		c-0.932,2.813-1.744,5.268-2.885,8.711c-3.024-1.346-6.276-3.053-9.71-4.234c-2.507-0.862-5.247-1.057-7.891-1.506
		c-7.974-1.355-15.967-2.607-23.911-4.115c-1.243-0.235-2.274-1.592-3.404-2.43c0.111-0.646,0.222-1.291,0.333-1.937
		c5.412,0,10.824,0,15.016,0c-8.652-14.888-25.748-17.769-41.267-23.63c-8.269,7.271-9.078,6.887-19.134,1.385
		c-10.042-5.492-20.646-9.965-31.047-14.792c-7.653-3.552-15.375-6.954-24.001-9.564c2.055,2.943,3.938,6.029,6.218,8.786
		c1.869,2.26,5.42,3.795,6.094,6.239c1.417,5.142,4.207,3.454,7.854,1.987c-0.227,2.317-0.388,3.965-0.52,5.314
		c2.034-0.165,4.107-0.333,5.134-0.417c1.353,4.186,2.343,7.248,3.444,10.651c1.005-0.3,2.021-0.603,3.699-1.103
		c-0.239,1.767-0.433,3.194-0.652,4.811c2.132,1.301,4.489,2.739,6.845,4.178l0.113-0.119c-1.123-0.105-2.248-0.193-3.368-0.32
		c-2.135-0.243-4.268-0.509-6.287-0.752c-0.662-1.769-1.58-4.221-2.497-6.673c-0.528,0.108-1.056,0.216-1.583,0.325
		c-0.118,1.327-0.236,2.654-0.405,4.555c-1.09-0.918-1.945-1.639-2.796-2.355c-0.688,1.502-1.402,3.061-2.116,4.619
		c-0.343-0.172-0.686-0.345-1.028-0.518c0.33-1.74,0.661-3.48,1.193-6.283c-2.5,1.945-4.091,3.183-5.682,4.42
		c-0.175-0.189-0.35-0.379-0.524-0.568c2.428-2.928,4.856-5.855,7.285-8.783c-0.312-0.195-0.624-0.392-0.936-0.588
		c-5.689,4.041-11.378,8.082-17.067,12.123c-0.436-0.504-0.872-1.007-1.308-1.51c1.757-2.238,3.514-4.477,5.372-6.844
		c-4.571-1.529-5.559,6.242-11.455,2.59c4.349-2.723,7.951-4.977,11.553-7.232c-0.286-0.367-0.571-0.734-0.856-1.102
		c-0.9,0.671-1.8,1.342-2.7,2.014c-0.314-0.183-0.628-0.365-0.942-0.549c0.737-1.566,1.475-3.133,2.735-5.807
		c-4.178,3.287-7.524,5.92-9.833,7.734c-3.648-0.186-6.219-0.318-9.207-0.471c-2.406-3.582-0.807-8.48,4.864-12.851
		c2.212-1.706,4.716-3.099,6.667-5.054c1.308-1.31,1.877-3.357,2.776-5.075c-2.509-0.021-5.301-0.741-7.45,0.129
		c-2.292,0.928-3.976,3.359-6.149,5.338c0.977,0.572,1.713,1.004,2.462,1.442c-0.205,0.368-0.319,0.852-0.519,0.89
		c-2.376,0.45-3.002,1.098-5.211,3.733c-1.782,2.126-3.904,3.98-5.96,5.863c-1.757,1.607-3.636,3.083-5.787,4.891
		c-0.848-0.703-2.092-1.736-3.653-3.033c3.88-3.189,7.787-6.401,11.693-9.612c-0.419-0.567-0.838-1.134-1.257-1.701
		c-2.554,1.884-5.108,3.767-7.662,5.651c-0.305-0.348-0.61-0.694-0.916-1.042c5.939-5.082,11.877-10.163,17.816-15.244
		c-0.28-0.45-0.559-0.901-0.839-1.351c-2.982,1.377-6.089,2.54-8.911,4.191c-2.79,1.633-5.104,1.596-8.365,0.83
		c-4.564-1.074-9.569-0.271-15.263-0.271c1.079,2.094,1.567,3.041,1.793,3.48c-3.286,2.229-6.512,4.475-9.796,6.632
		c-5.633,3.7-11.062,7.82-17.042,10.84c-3.87,1.955-8.525,2.553-12.91,3.223c-3.258,0.499-6.65,0.066-9.979,0.176
		c-4.625,0.152-8.353,1.873-12.063,4.977c-5.093,4.26-11.129,7.393-17.028,10.398c6.054-4.759,11.973-9.709,18.241-14.168
		c2.031-1.444,4.937-1.93,7.519-2.26c2.949-0.375,5.985-0.146,8.98-0.077c9.929,0.229,18.051-3.725,25.399-10.175
		c5.637-4.949,8.786-12.775,16.97-14.801c1.929-0.478,3.805-1.176,5.742-1.61c3.909-0.877,7.843-1.643,11.655-2.432
		c-0.404,0.504-1.189,1.483-1.974,2.463c0.19,0.411,0.38,0.822,0.57,1.233c4.591-2.093,9.617-3.568,13.676-6.419
		c6.633-4.659,12.455-4.484,19.389-0.519c7.453,4.262,15.592,7.321,23.418,10.935c9.343,4.315,18.706,8.59,27.985,13.038
		c3.145,1.508,5.812,1.296,8.963-0.213c4.857-2.326,9.973-2.35,15.093-0.209c3.974,1.66,8.238,2.666,12.12,4.498
		c6.24,2.945,12.302,6.274,18.375,9.559c2.92,1.578,5.584,3.655,8.563,5.092c3.424,1.651,5.8,2.028,9.719-1.462
		c3.534-3.147,5.942-6.215,8.488-10.072c4.753-7.203,11.385-12.882,19.221-16.941c1.261-0.653,2.438-1.881,3.138-3.132
		c4.156-7.434,11.77-10.266,18.535-14.252c2.553-1.504,5.348-2.821,7.443-4.835c7.77-7.465,15.378-15.104,22.872-22.846
		c3.347-3.458,6.318-7.286,9.369-11.019c0.707-0.865,1.622-2.135,1.46-3.043c-1.233-6.897,2.852-10.717,7.251-15.161
		c8.742-8.829,16.596-18.531,25.041-27.665c1.959-2.119,5.028-3.168,7.233-5.111c9.688-8.537,20.987-15.382,28.015-26.75
		c1.192-1.928,2.928-3.921,4.9-4.89c6.069-2.979,8.861-8.678,12.65-13.675c4.807-6.34,9.723-12.74,15.478-18.175
		c4.456-4.208,7.852-8.792,10.812-14.052c6.707-11.92,14.053-23.486,20.605-35.488c3.136-5.743,5.224-12.089,7.465-18.278
		c1.268-3.503,2.652-5.833,7.033-4.959c6.978,1.391,14.018,2.479,21.052,3.563c9.402,1.448,16.986,5.952,23.851,12.508
		c7.873,7.519,16.437,14.316,24.703,21.423c0.123,0.106,0.283,0.189,0.44,0.231c10.521,2.825,15.898,12.689,24.603,18.006
		c0.684,0.417,1.345,1.088,1.7,1.799c5.925,11.877,16.94,19.012,25.966,28c1.762,1.754,3.656,3.526,4.883,5.641
		c4.553,7.855,12.879,10.721,19.978,15.015c4.152,2.512,9.555,2.854,14.06,4.908c6.425,2.929,10.783,7.851,12.366,15.076
		c0.369,1.683,2.247,3.035,3.74,4.368c0.919,2.399-1.256,6.718,4.128,6.845c0.648,1.02,1.547,2.419,2.431,3.828
		c0.404,0.645,1.074,1.288,1.123,1.967c0.815,11.426,9.012,19.283,13.852,28.755c0.213,0.417,0.651,0.831,1.082,1.007
		c12.62,5.157,15.899,17.558,21.91,27.926c8.4,14.49,16.089,29.594,26.204,42.812c5.827,7.615,12.927,15.541,22.68,19.455
		c0.648,0.26,1.227,0.945,1.612,1.572c2.792,4.521,6.053,5.928,11.189,4.413c3.479-1.026,6.951-3.583,10.271-3.339
		c8.079,0.594,11.091-5.648,15.571-9.975c0.644-0.621,0.453-2.106,0.666-3.284c6.136-2.807,12.471-5.382,18.433-8.639
		c1.653-0.903,2.077-3.91,3.283-5.813c1.721-2.714,3.058-6.315,5.578-7.77c11.576-6.68,22.48-14.807,36.559-16.346
		c4.268-0.466,8.096-4.169,12.334-5.869c5.996-2.406,12.299-4.057,18.258-6.541c5.16-2.151,9.984-5.098,15.045-7.51
		c1.659-0.791,3.856-1.842,5.355-1.362c12.911,4.131,25.798,3.77,38.792,0.61c6.388-1.553,12.619-2.324,18.413,2.292
		c5.647,4.498,11.832,5.064,18.755,2.333c5.781-2.281,12.007-3.435,18.036-5.087c0.146,0.479,0.292,0.957,0.438,1.436
		c-8.073,2.73-15.992,6.255-24.283,7.852c-4.038,0.777-9.836-0.804-12.964-3.495c-6.422-5.522-12.855-4.197-19.603-2.458
		c-2.8,0.721-5.355,2.387-8.022,3.624c-0.478,0.118-0.956,0.237-1.435,0.355c-1.147-0.595-2.527-1.937-3.406-1.664
		c-5.825,1.807-11.425,5.05-17.328,5.686c-5.59,0.603-9.379,3.37-13.495,6.233c-0.326,0.227-0.491,0.684-1.56,2.244
		c5.842-3.024,10.481-5.426,15.12-7.828c0.312,0.49,0.622,0.98,0.933,1.47c-2.188,1.875-4.377,3.75-6.565,5.625
		c0.162,0.27,0.324,0.539,0.486,0.809c3.177-1.707,6.353-3.414,9.528-5.121c0.314,0.426,0.628,0.851,0.942,1.276
		c-2.216,2.078-4.431,4.155-6.646,6.233c0.128,0.224,0.257,0.448,0.386,0.672c2.585-1.154,5.17-2.308,7.755-3.461
		c0.256,0.355,0.512,0.71,0.767,1.066c-4.291,6.231-11.952,8.683-16.58,14.887c5.886-3.414,11.771-6.827,17.657-10.241
		c0.259,0.415,0.517,0.83,0.774,1.245c-4.73,6.496-13.4,7.846-18.833,13.57c9.047-2.183,16.746-7.151,24.558-12.23
		c0.341,3.432,0.622,6.269,1.044,10.531c-5.099,3.399-11.227,7.484-17.354,11.569c0.072,0.191,0.144,0.383,0.216,0.574
		c5.787-2.796,11.574-5.593,17.361-8.39c0.378,0.595,0.757,1.19,1.136,1.786c-2.976,2.355-5.952,4.711-8.928,7.066
		c0.12,0.196,0.24,0.392,0.36,0.588c3.384-1.684,6.769-3.368,11.078-5.511c-1.546,9.14-9.025,6.858-13.326,9.525
		c-4.998,3.099-9.67,7.138-15.891,7.338c-0.25-0.439-0.499-0.878-0.749-1.316c3.956-2.715,7.912-5.431,11.868-8.146
		c-5.508,2.326-10.932,3.331-17.006-0.34c2.912-1.897,5.795-3.776,9.835-6.409c-9.471,3.135-7.04-6.401-12.595-8.287
		c4.146-3.022,7.428-5.413,10.709-7.804c-0.109-0.232-0.219-0.465-0.328-0.698c-4.106,1.845-8.214,3.69-12.32,5.535
		c-0.265-0.431-0.529-0.862-0.794-1.293c0.709-0.999,1.418-1.998,2.098-2.955c-3.093-1.384-3.735-1.089-9.701,4.114
		c-3.105,2.709-6.762,4.937-9.328,8.071c-2.293,2.801-3.431,6.548-5.184,10.091c-0.481-0.879-1.161-2.122-1.806-3.3
		c-1.813,1.58-3.608,3.145-5.404,4.708c0.438-0.932,0.874-1.863,1.312-2.794c-0.312-0.295-0.623-0.591-0.935-0.887
		c-3.63,3.252-7.259,6.504-10.889,9.756c0.219,0.262,0.437,0.523,0.654,0.785c3.347-2.348,6.693-4.697,10.039-7.045
		c-2.238,2.548-4.478,5.097-6.716,7.645c0.086,0.199,0.172,0.396,0.258,0.596c2.235-1.371,4.472-2.74,6.707-4.111
		c0.196,0.19,0.392,0.381,0.588,0.571c-2.295,2.073-4.589,4.147-6.884,6.221c0.192,0.293,0.384,0.586,0.575,0.879
		c1.52-0.245,3.038-0.49,4.572-0.737c0.354,5.409-15.636,23.391-20.947,23.655c6.229-6.8,12.403-13.54,18.577-20.278
		c-0.539-0.486-1.078-0.972-1.617-1.457c-6.257,6.826-12.565,13.605-18.744,20.501c-2.425,2.706-2.868,2.896-4.349,1.055
		c-2.563,0.743-4.904,1.421-7.245,2.101c-0.134-0.455-0.267-0.909-0.4-1.363c-1.437,1.167-2.873,2.334-4.311,3.5
		c-0.364-0.338-0.729-0.676-1.094-1.014c0.509-0.71,1.019-1.42,1.504-2.153c4.034-4.667,8.091-9.312,12.148-13.954
		c-0.764-0.705-1.527-1.41-2.292-2.115c-2.549,3.059-5.375,5.934-7.541,9.242c-1.275,1.947-1.501,4.582-2.199,6.908
		c-1.508,0.684-3.305,1.059-4.451,2.129c-1.48,1.382-2.44,3.32-3.625,5.019c-0.493-0.347-0.986-0.694-1.479-1.042
		c2.181-3.82,4.361-7.641,6.542-11.461c-0.33-0.242-0.66-0.483-0.99-0.725c-1.997,2.599-4.032,5.169-5.979,7.804
		c-1.94,2.624-3.313,5.839-7.798,3.796c-1.452-0.662-3.671,0.355-6.482,0.73c-0.339,0.441-1.419,1.849-2.539,3.308
		c-3.623-1.87-4.317-4.064-1.926-7.149c0.797-1.029,1.224-2.344,1.82-3.527c0.781-2.086,1.563-4.172,2.345-6.258
		c-0.046-0.753-0.093-1.506-0.14-2.26c-0.662,0.295-1.482,0.43-1.961,0.907c-4.81,4.796-9.554,9.655-14.347,14.467
		c-0.423,0.425-1.064,0.63-2.447,0.302c1.982-2.951,3.965-5.903,5.948-8.855c-0.36-0.281-0.72-0.563-1.079-0.845
		c-3.352,4.235-6.704,8.472-10.188,12.874c-1.505-0.764-2.973-1.509-4.606-2.338c1.587-2.193,3.237-4.475,4.889-6.758
		c-0.232-0.184-0.464-0.369-0.695-0.553c-2.038,1.9-4.076,3.803-6.114,5.703c-0.365-0.342-0.729-0.684-1.095-1.026
		c3.307-4.021,6.613-8.04,9.92-12.061c-0.262-0.228-0.523-0.454-0.785-0.682c-3.878,4.333-7.757,8.665-11.635,12.999
		c-2.818-2.748-17.551-1.505-23.135,2.157c0.304-1.114,0.444-1.745,0.65-2.354c0.167-0.493,0.411-0.962,0.077-1.718
		c-1.723,1.885-3.153,4.293-5.269,5.477c-1.479,0.826-3.894-0.021-6.284-0.141c0.208-0.655,0.572-1.805,0.938-2.955
		c-0.178-0.197-0.354-0.396-0.532-0.594c-0.567,1.295-1.135,2.591-1.702,3.887c-0.535-0.391-1.071-0.781-1.607-1.171
		c0.439-1.37,0.88-2.74,1.492-4.647c-1.609,0.516-2.903,0.932-4.286,1.377c-0.083-0.309-0.451-0.933-0.282-1.163
		c1.122-1.53,2.083-3.776,3.608-4.301c5.148-1.769,10.559-2.758,15.773-4.353c4.049-1.238,7.957-2.938,11.928-4.432
		c0.034-0.473,0.068-0.947,0.103-1.421c-5.04-2.514-10.08-5.027-15.606-7.784c0.477,1.242,0.849,2.207,1.22,3.174
		c-0.232,0.18-0.464,0.359-0.696,0.538c-1.891-2.656-3.782-5.313-5.664-7.956c-1.406,2.344-0.795,3.667,3.306,7.811
		c-4.244,3.352-8.5,6.715-12.757,10.076c-0.346-0.443-0.691-0.889-1.038-1.332c3.581-3.147,7.161-6.295,10.668-9.377
		c-3.209-0.842-3.209-0.842-13.307,9.186c-2.03-2.139-3.971-4.182-5.694-5.997c-1.646-0.147-3.491-0.313-5.336-0.479
		c-0.178-0.715-0.355-1.43-0.533-2.145c3.623-2.13,7.246-4.26,10.742-6.314c-1.191-0.529-2.883-1.281-4.1-1.822
		c2.906-2.98,5.566-5.709,8.198-8.409c0.29,0.407,0.7,0.981,1.252,1.754c0.547-0.773,1.14-1.262,1.055-1.548
		c-0.779-2.635-1.091-5.662-2.633-7.777c-11.004-15.095-20.556-30.997-28.054-48.126c-1.015-2.32-2.545-4.414-3.837-6.613
		c-0.379,0.166-0.758,0.331-1.138,0.496c0.998,5.945,2.36,11.861,2.858,17.848c0.307,3.679,4.514,8.855-2.942,10.888
		c-0.826,0.225-0.794,3.633-1.143,5.567c-0.527,2.929-0.759,5.641-5.064,5.826c-2.153,0.092-4.212,2.365-6.725,3.188
		c3.69-3.006,7.382-6.012,11.072-9.019c-0.295-0.337-0.59-0.674-0.885-1.011c-5.869,3.29-11.738,6.579-17.607,9.869
		c5.88-4.616,11.759-9.231,17.679-13.878c-7.388,1.653-25.153,14.9-26.915,20.128C723.026,249.229,724.938,248.006,726.851,246.783z
		 M932.455,226.999c-1.589,0.237-3.402,0.064-4.723,0.79c-4.049,2.223-7.805,4.981-11.875,7.157
		c-2.871,1.534-6.002,2.695-9.145,3.558c-1.649,0.453-3.573-0.095-5.373-0.191c1.869,4.951,4.316,6.645,8.078,3.841
		c2.51-1.871,4.895-3.931,7.512-5.634c5.078-3.305,10.28-6.419,15.432-9.612c4.349-2.814,6.989,0.488,9.916,2.768
		c-8.524,7.996-16.392,16.987-29.083,18.761c7.717-5.707,15.434-11.414,23.151-17.121c-0.147-0.129-0.295-0.259-0.441-0.388
		c-11.166,6.388-22.332,12.776-32.82,18.776c4.644,1.753,9.098,3.436,13.944,5.266c-1.525,1.858-3.006,3.661-4.486,5.465
		c0.152,0.15,0.304,0.301,0.456,0.451c13.808-10.43,27.615-20.86,41.585-31.413c-9.638,2.531-9.638,2.531-8.513-2.287
		c-1.689,1.119-2.837,1.879-3.983,2.639c-0.242-1.766-0.634-3.527-0.684-5.298c-0.047-1.65-0.28-3.715,0.565-4.863
		c1.046-1.42,3.121-2.083,4.751-3.073c-0.082-0.186-0.163-0.373-0.245-0.559c-4.303,1.218-8.605,2.435-13.585,3.844
		c1.765,0.988,2.665,1.493,3.383,1.895C934.884,223.672,933.669,225.335,932.455,226.999z M851.66,278.603
		c2.341-4.408,4.682-8.814,7.022-13.221c-0.315-0.187-0.632-0.373-0.948-0.559c-4.31,6.326-8.62,12.652-12.93,18.979
		c0.221,0.184,0.441,0.367,0.662,0.551c2.111-1.969,4.222-3.936,6.332-5.904c-1.059,2.126-2.118,4.252-3.178,6.378
		c0.275,0.212,0.55,0.423,0.824,0.635c2.729-3.507,5.457-7.013,8.186-10.519c0.364,0.25,0.729,0.502,1.093,0.752
		c-1.63,2.594-3.26,5.186-4.89,7.779c0.493,0.316,0.987,0.633,1.48,0.949c5.3-8.387,10.6-16.775,16.064-25.423
		c0.933,0.698,2.002,1.499,3.342,2.502c-5.063,1.323-15.311,16.343-15.912,23.503c5.051-7.553,9.649-14.428,14.247-21.303
		c-1.556,8.23-10.854,13.408-7.024,23.333c1.086-1.494,2.112-2.906,3.766-5.182c-0.117,2.067-0.178,3.133-0.254,4.488
		c4.682-2.382,8.99-4.411,9.365-10.018c6.074-0.452,8.235-5.594,11.832-9.015c-0.289-0.336-0.578-0.67-0.866-1.004
		c-3.654,3.354-7.309,6.709-10.963,10.063c-2.313,4.243-5.438,4.176-9.28,1.857c3.923-4.027,7.661-7.83,11.357-11.672
		c2.32-2.412,4.338-4.947,2.187-8.635c-1.291,0.438-2.562,0.87-5.078,1.723c4.782-5.813,8.744-10.627,12.705-15.442
		c-0.492-0.416-0.984-0.832-1.477-1.247c-4.61,4.968-9.221,9.935-13.831,14.903c-0.409-0.367-0.819-0.734-1.229-1.101
		c3.875-4.933,7.75-9.866,11.624-14.799c-2.381,0.587-4.106,2.932-5.405,2.715c-4.395-0.733-5.393,2.313-6.871,5.003
		c-3.722,6.775-7.332,13.612-11.137,20.341c-0.729,1.291-2.141,2.195-3.237,3.279c-0.198-0.232-0.397-0.465-0.597-0.697
		c1.947-3.33,3.895-6.659,5.842-9.989c-0.292-0.181-0.584-0.361-0.876-0.542C859.632,267.57,855.657,273.075,851.66,278.603z
		 M472.188,144.722c-1.354,0.632-2.709,1.264-4.063,1.896c0.694-2.552,3.938-3.442,2.041-6.769c-0.224-0.393,3.495-3.033,5.41-4.652
		c-4.991-5.851,3.974-5.439,4.058-9.037c-1.007,0.221-2.015,0.443-3.022,0.664c-0.285-0.511-0.57-1.022-0.855-1.534
		c9.413-5.999,18.827-11.998,28.24-17.997c-0.188-0.304-0.375-0.607-0.563-0.912c-11.354,6.661-22.707,13.321-35.034,20.553
		c4.855,2.048,4.604,3.808,1.838,5.894c-2.389,1.801-4.652,3.774-6.895,5.758c-0.813,0.719-1.477,1.639-2.082,2.551
		c-1.76,2.647-3.365,5.402-5.203,7.992c-1.827,2.576-3.863,5.004-6.351,8.193c3.681-0.398,5.742-0.621,7.804-0.844
		c0.114,0.433,0.229,0.867,0.344,1.3c-2.426,1.523-4.851,3.046-8.342,5.238c7.031-1.052,12.783-1.913,18.535-2.773
		c0.151,0.513,0.303,1.025,0.454,1.538c-2.955,1.9-5.909,3.8-8.864,5.7c4.19-0.483,8.215-1.33,12.074-2.655
		c1.36-0.467,2.318-2.104,3.461-3.206c-2.946-1.059-0.993-2.024,0.153-2.691c11.018-6.41,22.083-12.737,33.098-19.152
		c1.802-1.049,3.425-2.407,5.13-3.623c-0.355-0.542-0.71-1.084-1.065-1.626c-11.506,6.721-23.011,13.442-34.516,20.163
		c3.323-7.703,12.189-7.917,16.876-13.946c-8.929,5.056-17.856,10.111-26.785,15.167c-0.235-0.301-0.472-0.603-0.707-0.903
		c1.569-3.473,3.14-6.945,4.729-10.396c1.322-0.417,2.772-0.611,3.941-1.291c3.414-1.983,6.62-4.333,10.079-6.227
		c9.007-4.93,18.119-9.666,27.149-14.553c1.237-0.67,2.249-1.759,3.365-2.654c-7.191,2.484-13.755,5.652-19.992,9.368
		C488.347,134.188,480.321,139.546,472.188,144.722z M516.555,79.526c0.316,0.387,0.632,0.775,0.947,1.162
		c-2.271,2.033-4.542,4.065-7.897,7.07c3.424-1.157,6.052-1.299,7.478-2.681c3.07-2.975,5.521-6.588,8.24-9.958
		c-0.745-0.71-1.908-1.819-3.153-3.006c0.912-1.249,1.705-2.333,2.497-3.417c-0.522,0.111-1.045,0.222-1.566,0.333
		c-0.607-1.262-1.615-2.489-1.73-3.795c-0.188-2.148,0.201-4.347,0.359-6.698c-2.833,0-4.966,0-7.724,0
		c3.627-2.814,6.821-5.293,10.015-7.771c-0.319-0.387-0.639-0.774-0.958-1.161c-5.337,1.792-9.407,5.273-11.976,10.427
		c-2.51,5.036-3.922,10.834-7.257,15.195c-5.906,7.721-12.936,14.579-19.423,21.862c-1.657,1.86-3.048,3.958-4.562,5.948
		c6.441-3.64,11.904-8.132,17.753-12.051C503.725,86.878,510.221,83.322,516.555,79.526z M528.846,117.957
		c0.604,0.528,1.207,1.057,1.811,1.586c2.042-2.699,4.085-5.399,6.127-8.098c0.623,0.628,1.245,1.255,1.868,1.883
		c-1.357,0.871-3.122,1.45-3.996,2.667c-2.62,3.65-7.788,5.789-7.314,11.264c0.121,1.397,1.86,3.933,2.4,3.817
		c5.395-1.153,8.257,2.093,10.813,5.866c1.038-0.745,1.866-1.34,3.878-2.785c-0.622,4.035-1.046,6.783-1.47,9.53
		c0.487,0.055,0.975,0.11,1.462,0.165c0.306-3.306,0.859-6.612,0.854-9.917c-0.006-4.136-1.749-8.577,3.279-11.314
		c0.676-0.369,0.668-1.994,1.147-3.612c-1.891,1.187-3.197,2.007-5.019,3.151c0.502-1.731,0.829-2.859,1.145-3.945
		c-1.76-0.495-3.153-0.887-3.413-0.96c-1.161-3.69-2.063-6.553-3.391-10.771C534.764,111.287,531.805,114.622,528.846,117.957z
		 M905.526,277.833c0.122-0.475,0.244-0.949,0.366-1.424c0.382,0.969,0.763,1.938,1.332,3.385c2.128-2.539,4.087-4.877,6.422-7.664
		c-5.497,1.316-12.639-1.509-14.767-5.144c-2.012,0.371-4.362,0.11-5.61,1.161c-4.297,3.614-8.367,7.543-12.161,11.684
		c-1.005,1.098-1.577,4.208-0.849,4.978c2.271,2.401,3.345-0.549,4.962-1.739c2.974-2.189,6.035-4.804,9.46-5.683
		C898.037,276.527,901.891,277.605,905.526,277.833z M700.467,147.137c-10.422,9.017-20.569,17.796-30.717,26.575
		c0.073,0.185,0.146,0.369,0.219,0.554c8.257-4.339,16.514-8.679,24.771-13.019c0.389,0.501,0.777,1.003,1.165,1.505
		c-0.977,1.614-1.954,3.228-3.056,5.047C699.376,166.118,702.615,157.439,700.467,147.137z M490.389,102.573
		c-12.433,3.579-18.471,11.818-14.143,18.131c9.741-5.778,19.496-11.565,29.252-17.352c-1.605-0.474-3.409-0.537-4.777,0.205
		c-5.986,3.246-11.836,6.741-17.761,10.102c-0.987,0.56-2.097,0.904-3.149,1.347c-0.203-0.39-0.406-0.779-0.608-1.169
		c7.887-4.939,15.773-9.879,23.66-14.819c-0.233-0.385-0.468-0.771-0.702-1.156c-7.078,4.238-14.156,8.476-21.234,12.714
		c-0.23-0.354-0.461-0.708-0.69-1.062C483.619,107.2,487.004,104.886,490.389,102.573z M676.256,164.848
		c8.566-7.493,16.587-14.092,23.988-21.326c1.519-1.484,0.716-5.343,0.97-7.969c-3.224,4.455-5.804,8.876-9.223,12.506
		c-3.448,3.66-7.286,7.792-11.779,9.375C676.258,158.829,675.582,160.189,676.256,164.848z M979.07,212.446
		c-0.062-0.333-0.124-0.667-0.186-1c-5.578-1.337-11.15-2.695-16.74-3.98c-0.571-0.131-1.38-0.018-1.846,0.311
		c-3.036,2.15-6.009,4.39-9.596,7.04c5.713-0.958,9.975-5.538,16.684-3.563c-3.178,2.509-5.476,4.323-7.773,6.138
		c2.78-0.609,4.842-2.506,7.236-3.132C970.811,213.224,974.985,213.008,979.07,212.446z M553.96,173.585
		c-0.147,0.39-0.295,0.779-0.441,1.168c1.567,2.238,4.239,4.36,4.488,6.736c0.643,6.132,0.215,12.375,0.215,18.86
		c0.637-1.031,1.701-1.961,1.714-2.905c0.083-6.26,0.386-12.579-0.395-18.75C559.3,176.787,555.908,175.277,553.96,173.585z
		 M517.775,162.391c-0.463-0.528-0.925-1.057-1.388-1.585c-6.122,6.068-15.943,7.487-19.407,16.916
		C503.912,172.611,510.844,167.501,517.775,162.391z M514.698,106.301c-0.354-0.603-0.707-1.206-1.062-1.808
		c-10.291,6.086-20.583,12.172-30.875,18.258c0.209,0.357,0.419,0.713,0.629,1.07C493.826,117.98,504.263,112.141,514.698,106.301z
		 M905.239,230.981c-6.185,2.04-12.517,3.808-16.588,10.22c3.608-0.698,7.216-1.396,11.659-2.256
		C898.07,236.388,898.07,236.388,905.239,230.981z M552.959,90.438c4.683-4.362,4.835-7.957,0.738-14.028
		C554.082,80.989,547.448,85.02,552.959,90.438z M456.664,128.397c0.409,0.446,0.817,0.892,1.226,1.337
		c7.503-5.037,15.246-12.808,14.686-16.623C466.809,118.652,461.736,123.525,456.664,128.397z M664.106,105.738
		c-2.034,3.084-1.687,4.582,3.236,8.874c1.151,1.003,3.539,0.587,5.357,0.825c-0.008-0.418-0.016-0.836-0.023-1.254
		C669.905,111.451,667.134,108.721,664.106,105.738z M743.064,217.047c1.988,0.13,4.012,0.263,6.605,0.434
		c-0.844-4.737-1.506-8.458-2.258-12.683c-1.961,2.585-3.375,4.449-4.712,6.213C748.972,212.584,743.005,214.719,743.064,217.047z
		 M690.128,170.18c-0.265-0.512-0.528-1.024-0.793-1.537c-7.271,3.764-14.544,7.527-21.815,11.291
		c0.238,0.462,0.478,0.925,0.717,1.388C675.533,177.608,682.83,173.894,690.128,170.18z M516.762,112.698
		c-0.341-0.547-0.682-1.093-1.022-1.64c-6.893,3.974-13.785,7.947-20.678,11.921c0.207,0.369,0.415,0.738,0.623,1.107
		C502.71,120.29,509.735,116.494,516.762,112.698z M732.927,234.362c0.328,0.396,0.655,0.793,0.983,1.19
		c5.677-3.766,11.354-7.531,17.03-11.296c-0.43-0.569-0.858-1.139-1.288-1.708C744.077,226.486,738.502,230.424,732.927,234.362z
		 M557.433,88.897c-3.543,2.07-5.858,4.427-3.276,8.838C560.416,94.247,560.502,94.015,557.433,88.897z M887.604,264.529
		c-6.539,2.078-9.558,7.879-12.906,13.365C879,273.439,883.303,268.984,887.604,264.529z M539.083,152.963
		c-4.965,1.252-4.375,4.87-3.908,8.729C538.07,159.329,542.483,157.938,539.083,152.963z M907.843,234.824
		c0.241,0.433,0.481,0.866,0.723,1.298c6.542-3.667,13.084-7.335,19.626-11.003c-0.191-0.345-0.383-0.689-0.574-1.035
		C921.025,227.665,914.435,231.244,907.843,234.824z M683.983,128.15c4.651-1.743,8.055-3.019,11.531-4.321
		C691.245,120.385,690.335,120.671,683.983,128.15z M453.905,226.555c0.179,0.277,0.356,0.554,0.534,0.832
		c2.606-1.862,5.224-3.708,7.812-5.594c0.759-0.553,1.55-1.138,2.076-1.884c0.165-0.234-0.568-1.54-0.758-1.51
		c-1.037,0.162-2.307,0.306-2.991,0.974C458.24,221.649,456.113,224.143,453.905,226.555z M661.099,167.996
		c2.984,1.998,4.452,2.98,5.919,3.962c0.66-1.815,1.319-3.63,2.391-6.58C666.422,166.319,664.137,167.039,661.099,167.996z
		 M546.231,211.923c0.35,0.265,0.7,0.53,1.05,0.794c3.07-4.047,6.14-8.094,9.209-12.141c-0.389-0.295-0.778-0.589-1.168-0.884
		C552.292,203.77,549.262,207.846,546.231,211.923z M284.118,293.083c-0.052,0.566-0.103,1.133-0.153,1.698
		c4.396,0.632,8.79,1.265,13.186,1.897c0.063-0.461,0.128-0.922,0.191-1.382C292.934,294.56,288.525,293.822,284.118,293.083z
		 M568.17,228.525c-0.361-0.244-0.723-0.488-1.084-0.732c-2.982,4.356-5.964,8.713-8.945,13.069
		c0.373,0.251,0.746,0.502,1.118,0.753C562.229,237.252,565.2,232.889,568.17,228.525z"/>
	<path fill-rule="evenodd" clip-rule="evenodd" fill="#3C3C3B" d="M612.974,319.369c0.904-1.211,1.81-2.422,2.714-3.633
		c-1.172-0.414-2.343-0.829-3.932-1.393c-0.183-0.666-0.664-2.42-1.432-5.215c-4.304,3.193-7.604,6.137-11.353,8.313
		c-6.306,3.66-12.858,6.907-19.418,10.1c-0.722,0.352-2.5-0.494-3.209-1.297c-1.495-1.69-2.605-3.721-4.151-6.025
		c13.148-9.335,26.378-18.727,39.808-28.261c-2.151-1.991-4.519-4.536-7.239-6.614c-3.498-2.672-6.775,0.361-9.165,1.835
		c-12.978,8.008-25.595,16.6-38.35,24.97c-0.364,0.238-0.886,0.237-2.178-0.667c2.803-2.259,5.604-4.518,8.407-6.776
		c-0.178-0.303-0.354-0.606-0.531-0.91c-3.823,2.143-7.646,4.284-11.47,6.426c-0.246-0.475-0.491-0.949-0.737-1.424
		c3.476-2.396,7.578-4.234,10.309-7.296c7.855-8.808,19.715-10.948,28.608-17.935c0.926-0.727,2.794-0.244,4.225-0.34
		c2.082-0.141,4.162-0.297,6.707-0.479c-2.663-4.892-2.663-4.892-11.931-3.057c1.649-1.34,3.299-2.68,5.791-4.704
		c-3.585-1.724-6.846-3.291-10.105-4.859c0.25-0.539,0.5-1.078,0.751-1.617c5.999,2.334,11.998,4.666,17.997,7
		c-0.092,0.361-0.184,0.722-0.275,1.083c-0.966-0.053-1.931-0.104-2.896-0.157c-0.294,0.439-0.589,0.879-0.884,1.318
		c7.414,5.742,14.577,11.851,22.312,17.123c7.744,5.279,16.059,9.725,24.124,14.535c-0.368,0.617-0.736,1.234-1.104,1.852
		c-2.414-1.582-4.774-3.254-7.252-4.729c-5.402-3.213-10.601-7.082-16.429-9.119c-2.444-0.854-6.275,2.258-9.476,3.566
		c0.32,0.663,0.642,1.326,0.962,1.988c1.675-0.811,3.35-1.623,5.349-2.592c-0.171,1.174-0.336,2.305-0.57,3.912
		c2.389-1.41,4.495-2.654,7.497-4.427c-2.104,7.591-9.573,4.675-12.685,9.255c2.086,2.521,3.874,5.846,8.073,6.006
		c0.725,1.636,1.563,3.527,2.166,4.891c-2.69-0.199-5.857-0.433-9.024-0.666L612.974,319.369z"/>
	<path fill-rule="evenodd" clip-rule="evenodd" fill="#3C3C3B" d="M1077.965,208.568c-3.916-5.051-7.815-2.173-11.694,0.072
		c-0.384-1.208-0.756-2.381-1.199-3.775c6.721-4.077,9.31-3.635,15.998,1.349c5.171,3.853,10.836,7.046,16.304,10.496
		c9.254,5.84,18.588,11.555,27.768,17.509c5.696,3.695,10.976,8.071,16.838,11.455c2.404,1.387,6.004,1.74,8.791,1.195
		c4.912-0.961,8.787-0.509,12.945,2.748c7.038,5.511,14.716,10.202,22.027,15.375c1.111,0.787,2.598,2.508,2.39,3.467
		c-1.565,7.209,2.702,7.884,8.856,12.043c-5.154-0.826-11.402-3.535-11.76-10.064c-0.078-1.43-0.968-3.285-2.095-4.109
		c-8.171-5.973-16.458-11.792-24.828-17.483c-1.067-0.727-2.921-0.856-4.246-0.551c-6.062,1.396-11.89,2.076-17.066-2.771
		c0.756,0.832,1.479,1.698,2.277,2.486c0.802,0.791,1.681,1.504,1.995,3.337c-1.776-0.761-3.782-1.212-5.291-2.333
		c-8.261-6.138-17.37-11.535-24.291-18.956c-6.202-6.651-14.284-9.496-21.241-14.434c-7.952-5.645-16.274-3.441-24.214,0.921
		c-2.908,1.598-5.834,3.18-8.842,4.577c-1.159,0.539-2.566,0.545-3.86,0.795c-0.189-0.552-0.379-1.103-0.569-1.654
		C1061.291,216.365,1069.625,212.468,1077.965,208.568z"/>
	<path fill-rule="evenodd" clip-rule="evenodd" fill="#3C3C3B" d="M563.715,315.779c7.319-4.518,14.64-9.036,21.959-13.555
		c-0.328-0.57-0.656-1.141-0.985-1.711c-7.245,4.277-14.49,8.556-21.796,12.869c2.458-4.543,35.854-25.329,40.331-24.477
		c-2.604,2.225-4.847,4.141-7.854,6.709c5.285-1.45,8.339-6.596,14.965-4.006c-2.341,1.541-3.833,2.616-5.411,3.546
		c-7.504,4.421-15.049,8.772-22.543,13.212c-4.121,2.441-8.081,5.17-12.293,7.436c-1.738,0.935-3.947,0.992-5.942,1.449
		C564.002,316.761,563.858,316.27,563.715,315.779z"/>
	<path fill-rule="evenodd" clip-rule="evenodd" fill="#3C3C3B" d="M991.825,212.568c0.479-0.119,0.957-0.237,1.435-0.355
		c5.884-1.376,11.768-2.752,17.638-4.125c0.573,2.333,0.933,3.8,1.379,5.617c-11.021,0.842-19.766,11.299-32.697,6.591
		c-0.089-0.252-0.545-1.548-1.304-3.702C982.89,215.223,987.357,213.895,991.825,212.568z"/>
	<path fill-rule="evenodd" clip-rule="evenodd" fill="#3C3C3B" d="M450.516,294.013c2.276-2.586,4.554-5.172,7.482-8.498
		c2.728,1.949,6.484,4.635,10.742,7.678c1.848-1.145,4.379-2.713,6.911-4.281c0.227,0.33,0.454,0.662,0.682,0.992
		c-1.701,1.42-3.402,2.84-5.843,4.875c6.926,6.223,13.749,12.354,20.573,18.486c-0.258,0.385-0.517,0.769-0.774,1.152
		c-2.152-1.435-4.416-2.73-6.435-4.333c-4.666-3.704-8.992-7.896-13.947-11.138c-1.457-0.953-5.002-0.041-6.815,1.174
		c-2.983,1.998-5.301,4.977-7.971,7.465c-0.897,0.836-2.014,1.438-3.029,2.147c-0.427-0.508-0.853-1.015-1.279-1.522
		c4.789-4.074,9.578-8.146,14.088-11.982c-3.549-8.626-9.209-4.172-14.498-2.332L450.516,294.013z"/>
	<path fill-rule="evenodd" clip-rule="evenodd" fill="#3C3C3B" d="M443.342,216.756c-2.631,1.135-4.231,1.825-5.831,2.515
		c-0.375-0.42-0.75-0.84-1.124-1.26c2.373-2.62,4.36-5.835,7.226-7.699c3.053-1.986,4.007-6.434,8.945-6.423
		c3.896,0.009,7.798-1.792,12.157-1.809c-2.735,0.963-5.537,1.777-8.175,2.958c-1.137,0.509-2.332,1.609-2.807,2.734
		c-1.276,3.019-9.659,7.363-12.996,6.449c-0.361,0.354-0.723,0.707-1.085,1.061C440.563,215.646,441.473,216.01,443.342,216.756z"/>
	<path fill-rule="evenodd" clip-rule="evenodd" fill="#3C3C3B" d="M212.405,284.951c9.572,3.53,19.197,6.926,28.683,10.673
		c2.909,1.149,5.197,3.175,2.28,6.881c-0.666,0.847,0.092,2.813,0.195,4.264l-0.287,0.329c-2.062-1.43-4.125-2.857-6.414-4.444
		c1.829-1.697,3.088-2.866,5.093-4.728c-2.195-0.808-3.632-1.317-5.055-1.861c-7.522-2.879-15.062-5.715-22.533-8.721
		c-0.821-0.33-1.245-1.648-1.851-2.51C212.518,284.832,212.405,284.951,212.405,284.951z"/>
	<path fill-rule="evenodd" clip-rule="evenodd" fill="#3C3C3B" d="M645.063,202.809c4.626-4.528,9.252-9.055,13.877-13.583
		c0.164,0.184,0.327,0.368,0.49,0.551c-5.348,5.826-10.694,11.653-15.89,17.314c-1.745-2.143-2.958-3.632-4.615-5.667
		c1.48-1.977,1.816-6.689,7.651-5.407c-0.944,2.111-1.804,4.031-2.664,5.952C644.296,202.249,644.68,202.529,645.063,202.809z"/>
	<path fill-rule="evenodd" clip-rule="evenodd" fill="#3C3C3B" d="M990.673,261.234c-9.13,5.07-18.259,10.139-27.389,15.208
		c-0.364-0.645-0.729-1.289-1.095-1.934c9.079-5.172,18.158-10.343,27.237-15.515C989.842,259.741,990.258,260.488,990.673,261.234z
		"/>
	<path fill-rule="evenodd" clip-rule="evenodd" fill="#3C3C3B" d="M1242.346,296.912c-12.376-3.59-24.751-7.18-37.126-10.77
		C1218.279,287.404,1230.898,290.234,1242.346,296.912z"/>
	<path fill-rule="evenodd" clip-rule="evenodd" fill="#3C3C3B" d="M631.321,77.654c1.281,1.181,2.082,1.919,3.854,3.552
		c-5.252,4.04-10.295,7.918-15.338,11.797c-0.388-0.472-0.776-0.943-1.164-1.415c1.759-2.486,3.481-4.722,6.395-6.488
		C627.658,83.529,629.223,80.269,631.321,77.654z"/>
	<path fill-rule="evenodd" clip-rule="evenodd" fill="#3C3C3B" d="M243.563,306.768c2.522,1.446,5.259,2.618,7.526,4.392
		c6.618,5.173,14.612,6.671,22.366,8.854c2.54,0.715,5.102,1.355,7.602,2.203c-14.474-0.348-27.202-5.066-37.78-15.119
		L243.563,306.768z"/>
	<path fill-rule="evenodd" clip-rule="evenodd" fill="#3C3C3B" d="M657.135,200.356c-0.236-1.608-0.474-3.216-0.648-4.404
		c8.37-4.984,16.331-9.725,24.291-14.465c0.104,0.085,0.209,0.171,0.313,0.257c-5.75,4.413-11.511,8.813-17.246,13.245
		c-2.272,1.756-4.491,3.585-6.734,5.38L657.135,200.356z"/>
	<path fill-rule="evenodd" clip-rule="evenodd" fill="#3C3C3B" d="M638.519,97.981c-2.244,1.444-4.48,2.902-6.736,4.329
		c-1.555,0.984-3.136,1.926-5.847,3.585c4.2-4.736,7.42-8.366,10.639-11.997l-0.161,0.16c2.498-1.632,4.997-3.265,7.495-4.897
		c0.209,0.254,0.417,0.508,0.626,0.762c-2.061,2.742-4.12,5.483-6.181,8.227C638.354,98.153,638.519,97.981,638.519,97.981z"/>
	<path fill-rule="evenodd" clip-rule="evenodd" fill="#3C3C3B" d="M424.748,202.451c2.978-2.97,7.096-4.265,9.372-8.685
		c1.545-2.998,7.241-3.857,11.687-4.721c-6.77,4.798-13.539,9.596-20.308,14.394C425.248,203.11,424.998,202.781,424.748,202.451z"
		/>
	<path fill-rule="evenodd" clip-rule="evenodd" fill="#3C3C3B" d="M327.636,303.886c4.675-3.276,17.788-1.261,24.331,2.74
		C345.059,305.849,336.65,304.902,327.636,303.886z"/>
	<path fill-rule="evenodd" clip-rule="evenodd" fill="#3C3C3B" d="M963.038,281.22c8.735-3.619,17.471-7.236,26.206-10.855
		C980.666,274.64,973.075,281.408,963.038,281.22z"/>
	<path fill-rule="evenodd" clip-rule="evenodd" fill="#3C3C3B" d="M642.703,223.792c2.984-4.831,5.053-8.18,7.122-11.53
		c0.219,0.099,0.438,0.198,0.656,0.297c-0.504,1.333-1.007,2.665-1.827,4.834c4.084-2.528,7.439-4.604,10.795-6.681
		c0.283,0.467,0.565,0.935,0.849,1.402C654.761,215.79,649.223,219.465,642.703,223.792z"/>
	<path fill-rule="evenodd" clip-rule="evenodd" fill="#3C3C3B" d="M776.909,256.162c0.146,2.265,0.233,3.607,0.381,5.882
		c1.887-1.981,2.974-3.123,4.06-4.263c0.306,0.109,0.61,0.219,0.915,0.329c-0.564,2.156-1.129,4.313-1.844,7.042
		c-3.527-4.982-7.117-1.979-10.887-1.938C771.933,260.92,774.331,258.627,776.909,256.162z"/>
	<path fill-rule="evenodd" clip-rule="evenodd" fill="#3C3C3B" d="M636.574,93.899c-2.493,1.346-4.987,2.692-7.481,4.038
		c-0.295-0.432-0.589-0.863-0.884-1.294c3.338-3.487,6.677-6.975,10.016-10.461c0.507,0.258,1.014,0.516,1.521,0.773
		c-1.112,2.368-2.224,4.736-3.334,7.104C636.413,94.059,636.574,93.899,636.574,93.899z"/>
	<path fill-rule="evenodd" clip-rule="evenodd" fill="#3C3C3B" d="M857.519,288.218c-0.781,2.086-1.563,4.172-2.345,6.258
		c-2.199,2.58-4.425,5.14-6.587,7.751c-1.228,1.482-2.352,3.051-3.522,4.58c-0.442-0.328-0.885-0.656-1.326-0.983
		C848.332,299.955,852.926,294.087,857.519,288.218z"/>
	<path fill-rule="evenodd" clip-rule="evenodd" fill="#3C3C3B" d="M567.532,138.489c3.941,4.947,10.409,8.1,10.861,16.013
		c-2.094-2.894-3.814-5.585-5.856-8.006c-2.02-2.395-4.363-4.516-6.565-6.757C566.492,139.322,567.012,138.905,567.532,138.489z"/>
	<path fill-rule="evenodd" clip-rule="evenodd" fill="#3C3C3B" d="M720.405,191.839c-1.033,5.874-1.902,11.785-3.215,17.596
		c-0.32,1.415-2.096,2.5-3.815,4.423c2.052-8.211,1.35-16.13,7.183-21.877C720.56,191.98,720.405,191.839,720.405,191.839z"/>
	<path fill-rule="evenodd" clip-rule="evenodd" fill="#3C3C3B" d="M442.069,256.407c1.347,3.894,1.347,3.894-6.183,8.809
		c-1.208-3.903-1.2-3.891,1.806-5.775c1.498-0.939,2.963-1.931,4.431-2.917C442.111,256.505,442.069,256.407,442.069,256.407z"/>
	<path fill-rule="evenodd" clip-rule="evenodd" fill="#3C3C3B" d="M690.293,190.105c-1.546,3.205-2.736,5.672-3.955,8.198
		c-2.841,0.591-5.854,1.218-9.303,1.936C681.473,196.847,685.517,193.756,690.293,190.105z"/>
	<path fill-rule="evenodd" clip-rule="evenodd" fill="#3C3C3B" d="M566.471,90.009c4.549,4.015,9.097,8.03,13.646,12.045
		c-0.365,0.399-0.731,0.799-1.097,1.198c-4.617-3.958-9.233-7.917-13.851-11.876C565.604,90.92,566.037,90.464,566.471,90.009z"/>
	<path fill-rule="evenodd" clip-rule="evenodd" fill="#3C3C3B" d="M32.651,299.235c-6.48,1.868-12.96,3.735-19.441,5.604
		c-0.178-0.597-0.356-1.192-0.535-1.788c6.48-1.563,12.96-3.128,19.44-4.692C32.294,298.651,32.473,298.943,32.651,299.235z"/>
	<path fill-rule="evenodd" clip-rule="evenodd" fill="#3C3C3B" d="M744.37,275.361c0.847-2.668,1.692-5.334,2.833-8.926
		c0.416,1.921,0.661,3.055,0.959,4.428c2.48-2.107,4.783-4.064,7.086-6.021c0.252,0.293,0.505,0.586,0.758,0.879
		c-3.574,3.521-7.149,7.042-10.724,10.563C744.979,275.976,744.674,275.668,744.37,275.361z"/>
	<path fill-rule="evenodd" clip-rule="evenodd" fill="#3C3C3B" d="M718.17,265.852c3.976-3.634,7.951-7.268,11.927-10.901
		c0.436,0.487,0.871,0.974,1.306,1.46c-3.972,3.602-7.943,7.204-11.915,10.806C719.049,266.762,718.609,266.307,718.17,265.852z"/>
	<path fill-rule="evenodd" clip-rule="evenodd" fill="#3C3C3B" d="M1046.602,217.701c5.338-2.979,10.676-5.958,16.013-8.937
		c0.226,0.386,0.451,0.772,0.677,1.159c-5.271,3.085-10.542,6.17-15.813,9.255C1047.186,218.686,1046.895,218.193,1046.602,217.701z
		"/>
	<path fill-rule="evenodd" clip-rule="evenodd" fill="#3C3C3B" d="M657.11,200.37c-3.054,3.533-6.051,7.119-9.196,10.568
		c-0.949,1.041-2.312,1.705-4.01,1.45c2.868-3.306,5.607-6.74,8.675-9.85c1.11-1.125,3.007-1.475,4.551-2.181
		C657.135,200.356,657.11,200.37,657.11,200.37z"/>
	<path fill-rule="evenodd" clip-rule="evenodd" fill="#3C3C3B" d="M450.402,293.896c0.608,4.184-1.832,6.102-5.677,7.824
		c1.011-2.969,3.25-5.975-2.034-6.879c2.607-0.276,5.215-0.553,7.823-0.828C450.516,294.013,450.402,293.896,450.402,293.896z"/>
	<path fill-rule="evenodd" clip-rule="evenodd" fill="#3C3C3B" d="M1009.234,233.862c-5.709,2.521-11.418,5.042-17.127,7.562
		c-0.188-0.459-0.375-0.918-0.563-1.377c5.744-2.433,11.488-4.865,17.232-7.298C1008.93,233.12,1009.082,233.491,1009.234,233.862z"
		/>
	<path fill-rule="evenodd" clip-rule="evenodd" fill="#3C3C3B" d="M639.146,327.814c-5.396,0.844-10.792,1.687-16.188,2.529
		c-0.058-0.344-0.116-0.687-0.175-1.029c5.367-1.013,10.734-2.025,16.102-3.037C638.972,326.789,639.059,327.302,639.146,327.814z"
		/>
	<path fill-rule="evenodd" clip-rule="evenodd" fill="#3C3C3B" d="M590.662,84.826c-2.887,3.103-5.774,6.205-8.661,9.307
		c-0.386-0.367-0.771-0.734-1.155-1.101c3.069-2.917,6.14-5.833,9.209-8.749C590.258,84.464,590.46,84.645,590.662,84.826z"/>
	<path fill-rule="evenodd" clip-rule="evenodd" fill="#3C3C3B" d="M936.117,265.385c-3.172,0.849-6.344,1.696-10.125,2.707
		C927.857,265.312,927.857,265.312,936.117,265.385z"/>
	<path fill-rule="evenodd" clip-rule="evenodd" fill="#3C3C3B" d="M612.977,319.349c-0.317,1.024-0.313,2.502-1.009,2.996
		c-3.022,2.148-6.247,4.012-9.399,5.979c-0.277-0.383-0.555-0.766-0.832-1.148c3.746-2.6,7.492-5.197,11.238-7.801
		C612.974,319.369,612.977,319.349,612.977,319.349z"/>
	<path fill-rule="evenodd" clip-rule="evenodd" fill="#3C3C3B" d="M443.499,196.311c3.28-2.105,6.561-4.211,9.841-6.316
		c0.284,0.402,0.569,0.804,0.854,1.206c-3.153,2.328-6.307,4.656-9.46,6.983C444.322,197.56,443.91,196.936,443.499,196.311z"/>
	<path fill-rule="evenodd" clip-rule="evenodd" fill="#3C3C3B" d="M487.654,252.788c-2.728,2.264-5.455,4.528-8.183,6.792
		c-0.381-0.441-0.762-0.882-1.143-1.324c2.672-2.329,5.343-4.657,8.015-6.986C486.78,251.776,487.217,252.282,487.654,252.788z"/>
</g>
</svg>
